<mxfile host="65bd71144e" scale="3" border="0">
    <diagram id="v5n9_p8s5-Mrl98gcspo" name="Page-1">
        <mxGraphModel dx="1032" dy="500" grid="1" gridSize="10" guides="1" tooltips="1" connect="1" arrows="1" fold="1" page="1" pageScale="1" pageWidth="827" pageHeight="1169" math="0" shadow="0">
            <root>
                <mxCell id="0"/>
                <mxCell id="1" parent="0"/>
                <mxCell id="37" value="" style="rounded=0;whiteSpace=wrap;html=1;fillColor=none;fontColor=#ffffff;strokeColor=#001DBC;dashed=1;dashPattern=8 8;" parent="1" vertex="1">
                    <mxGeometry x="40" y="80" width="570" height="340" as="geometry"/>
                </mxCell>
                <mxCell id="2" value="Runnable" style="html=1;rounded=1;" parent="1" vertex="1">
                    <mxGeometry x="100" y="130" width="110" height="50" as="geometry"/>
                </mxCell>
                <mxCell id="3" value="" style="ellipse;html=1;shape=startState;" parent="1" vertex="1">
                    <mxGeometry x="140" y="42" width="30" height="30" as="geometry"/>
                </mxCell>
                <mxCell id="4" value="" style="edgeStyle=orthogonalEdgeStyle;html=1;verticalAlign=bottom;endArrow=open;endSize=8;" parent="1" source="3" edge="1">
                    <mxGeometry relative="1" as="geometry">
                        <mxPoint x="155" y="130" as="targetPoint"/>
                    </mxGeometry>
                </mxCell>
                <mxCell id="5" value="Running" style="html=1;rounded=1;" parent="1" vertex="1">
                    <mxGeometry x="430" y="130" width="110" height="50" as="geometry"/>
                </mxCell>
                <mxCell id="6" value="Waiting" style="html=1;rounded=1;" parent="1" vertex="1">
                    <mxGeometry x="265" y="290" width="110" height="50" as="geometry"/>
                </mxCell>
                <mxCell id="7" value="Blocked" style="html=1;rounded=1;" parent="1" vertex="1">
                    <mxGeometry x="265" y="220" width="110" height="50" as="geometry"/>
                </mxCell>
                <mxCell id="9" value="Dead&lt;br&gt;(finish)" style="html=1;rounded=1;" parent="1" vertex="1">
                    <mxGeometry x="430" y="10" width="110" height="50" as="geometry"/>
                </mxCell>
                <mxCell id="10" value="start()" style="text;align=center;fontStyle=1;verticalAlign=middle;spacingLeft=3;spacingRight=3;strokeColor=none;rotatable=0;points=[[0,0.5],[1,0.5]];portConstraint=eastwest;rounded=1;" parent="1" vertex="1">
                    <mxGeometry x="139" y="81" width="80" height="26" as="geometry"/>
                </mxCell>
                <mxCell id="12" value="Scheduler" style="text;align=center;fontStyle=1;verticalAlign=middle;spacingLeft=3;spacingRight=3;strokeColor=none;rotatable=0;points=[[0,0.5],[1,0.5]];portConstraint=eastwest;rounded=1;" parent="1" vertex="1">
                    <mxGeometry x="280" y="90" width="80" height="26" as="geometry"/>
                </mxCell>
                <mxCell id="13" value="" style="curved=1;endArrow=classic;html=1;exitX=1;exitY=0.25;exitDx=0;exitDy=0;entryX=0;entryY=0.25;entryDx=0;entryDy=0;" parent="1" source="2" target="5" edge="1">
                    <mxGeometry width="50" height="50" relative="1" as="geometry">
                        <mxPoint x="360" y="260" as="sourcePoint"/>
                        <mxPoint x="410" y="210" as="targetPoint"/>
                        <Array as="points">
                            <mxPoint x="260" y="120"/>
                            <mxPoint x="390" y="120"/>
                        </Array>
                    </mxGeometry>
                </mxCell>
                <mxCell id="14" value="" style="curved=1;endArrow=classic;html=1;exitX=0;exitY=0.75;exitDx=0;exitDy=0;entryX=1;entryY=0.75;entryDx=0;entryDy=0;" parent="1" source="5" target="2" edge="1">
                    <mxGeometry width="50" height="50" relative="1" as="geometry">
                        <mxPoint x="225" y="202.5" as="sourcePoint"/>
                        <mxPoint x="445" y="202.5" as="targetPoint"/>
                        <Array as="points">
                            <mxPoint x="390" y="190"/>
                            <mxPoint x="250" y="190"/>
                        </Array>
                    </mxGeometry>
                </mxCell>
                <mxCell id="15" value="yield()&lt;br&gt;or Scheduler" style="text;html=1;strokeColor=none;fillColor=none;align=center;verticalAlign=middle;whiteSpace=wrap;rounded=0;" parent="1" vertex="1">
                    <mxGeometry x="265" y="150" width="110" height="30" as="geometry"/>
                </mxCell>
                <mxCell id="16" value="" style="endArrow=classic;html=1;exitX=0.5;exitY=0;exitDx=0;exitDy=0;entryX=0.5;entryY=1;entryDx=0;entryDy=0;" parent="1" source="5" target="9" edge="1">
                    <mxGeometry width="50" height="50" relative="1" as="geometry">
                        <mxPoint x="360" y="250" as="sourcePoint"/>
                        <mxPoint x="410" y="200" as="targetPoint"/>
                    </mxGeometry>
                </mxCell>
                <mxCell id="17" value="done" style="text;html=1;strokeColor=none;fillColor=none;align=center;verticalAlign=middle;whiteSpace=wrap;rounded=0;" parent="1" vertex="1">
                    <mxGeometry x="480" y="79" width="60" height="30" as="geometry"/>
                </mxCell>
                <mxCell id="18" value="" style="curved=1;endArrow=classic;html=1;exitX=0.25;exitY=1;exitDx=0;exitDy=0;entryX=1;entryY=0.5;entryDx=0;entryDy=0;" parent="1" source="5" target="7" edge="1">
                    <mxGeometry width="50" height="50" relative="1" as="geometry">
                        <mxPoint x="440" y="177.5" as="sourcePoint"/>
                        <mxPoint x="220" y="177.5" as="targetPoint"/>
                        <Array as="points">
                            <mxPoint x="440" y="220"/>
                            <mxPoint x="400" y="245"/>
                        </Array>
                    </mxGeometry>
                </mxCell>
                <mxCell id="19" value="" style="curved=1;endArrow=classic;html=1;exitX=0.5;exitY=1;exitDx=0;exitDy=0;entryX=1;entryY=0.5;entryDx=0;entryDy=0;" parent="1" source="5" target="6" edge="1">
                    <mxGeometry width="50" height="50" relative="1" as="geometry">
                        <mxPoint x="467.5" y="190" as="sourcePoint"/>
                        <mxPoint x="385" y="255" as="targetPoint"/>
                        <Array as="points">
                            <mxPoint x="470" y="250"/>
                            <mxPoint x="430" y="300"/>
                        </Array>
                    </mxGeometry>
                </mxCell>
                <mxCell id="20" value="sync necessary" style="text;html=1;strokeColor=none;fillColor=none;align=center;verticalAlign=middle;whiteSpace=wrap;rounded=0;" parent="1" vertex="1">
                    <mxGeometry x="385" y="199" width="60" height="30" as="geometry"/>
                </mxCell>
                <mxCell id="23" value="" style="curved=1;endArrow=classic;html=1;exitX=0;exitY=0.5;exitDx=0;exitDy=0;entryX=0.5;entryY=1;entryDx=0;entryDy=0;" parent="1" source="6" target="2" edge="1">
                    <mxGeometry width="50" height="50" relative="1" as="geometry">
                        <mxPoint x="495" y="190" as="sourcePoint"/>
                        <mxPoint x="385" y="325" as="targetPoint"/>
                        <Array as="points">
                            <mxPoint x="160" y="300"/>
                        </Array>
                    </mxGeometry>
                </mxCell>
                <mxCell id="25" value="" style="curved=1;endArrow=classic;html=1;exitX=0;exitY=0.5;exitDx=0;exitDy=0;entryX=0.75;entryY=1;entryDx=0;entryDy=0;" parent="1" source="7" target="2" edge="1">
                    <mxGeometry width="50" height="50" relative="1" as="geometry">
                        <mxPoint x="467.5" y="190" as="sourcePoint"/>
                        <mxPoint x="385" y="255" as="targetPoint"/>
                        <Array as="points">
                            <mxPoint x="200" y="240"/>
                        </Array>
                    </mxGeometry>
                </mxCell>
                <mxCell id="26" value="sync&amp;nbsp;&lt;br&gt;received" style="text;html=1;strokeColor=none;fillColor=none;align=center;verticalAlign=middle;whiteSpace=wrap;rounded=0;" parent="1" vertex="1">
                    <mxGeometry x="200" y="199" width="60" height="30" as="geometry"/>
                </mxCell>
                <mxCell id="27" value="wait()&lt;br&gt;join()" style="text;html=1;strokeColor=none;fillColor=none;align=center;verticalAlign=middle;whiteSpace=wrap;rounded=0;" parent="1" vertex="1">
                    <mxGeometry x="395" y="250" width="60" height="30" as="geometry"/>
                </mxCell>
                <mxCell id="28" value="notify()" style="text;html=1;strokeColor=none;fillColor=none;align=center;verticalAlign=middle;whiteSpace=wrap;rounded=0;" parent="1" vertex="1">
                    <mxGeometry x="180" y="250" width="60" height="30" as="geometry"/>
                </mxCell>
                <mxCell id="29" value="Sleeping" style="html=1;rounded=1;" parent="1" vertex="1">
                    <mxGeometry x="265" y="360" width="110" height="50" as="geometry"/>
                </mxCell>
                <mxCell id="30" value="" style="curved=1;endArrow=classic;html=1;exitX=0.75;exitY=1;exitDx=0;exitDy=0;entryX=1;entryY=0.5;entryDx=0;entryDy=0;" parent="1" source="5" target="29" edge="1">
                    <mxGeometry width="50" height="50" relative="1" as="geometry">
                        <mxPoint x="495" y="190" as="sourcePoint"/>
                        <mxPoint x="385" y="325" as="targetPoint"/>
                        <Array as="points">
                            <mxPoint x="500" y="260"/>
                            <mxPoint x="450" y="360"/>
                        </Array>
                    </mxGeometry>
                </mxCell>
                <mxCell id="31" value="" style="curved=1;endArrow=classic;html=1;exitX=0;exitY=0.5;exitDx=0;exitDy=0;entryX=0.25;entryY=1;entryDx=0;entryDy=0;" parent="1" source="29" target="2" edge="1">
                    <mxGeometry width="50" height="50" relative="1" as="geometry">
                        <mxPoint x="522.5" y="190" as="sourcePoint"/>
                        <mxPoint x="385" y="395" as="targetPoint"/>
                        <Array as="points">
                            <mxPoint x="150" y="340"/>
                        </Array>
                    </mxGeometry>
                </mxCell>
                <mxCell id="32" value="sleep()" style="text;html=1;strokeColor=none;fillColor=none;align=center;verticalAlign=middle;whiteSpace=wrap;rounded=0;" parent="1" vertex="1">
                    <mxGeometry x="394" y="329" width="60" height="30" as="geometry"/>
                </mxCell>
                <mxCell id="38" value="&lt;font color=&quot;#0000ff&quot;&gt;isAlive()&lt;/font&gt;" style="text;html=1;strokeColor=none;fillColor=none;align=center;verticalAlign=middle;whiteSpace=wrap;rounded=0;dashed=1;dashPattern=8 8;" parent="1" vertex="1">
                    <mxGeometry x="40" y="390" width="60" height="30" as="geometry"/>
                </mxCell>
            </root>
        </mxGraphModel>
    </diagram>
</mxfile>